<?xml version="1.0" encoding="UTF-8"?>
<svg version="1.1" xmlns="http://www.w3.org/2000/svg" width="707" height="255">
<path d="M0 0 C14.25378487 15.05282164 19.75620375 34.34355111 19.60473633 54.65478516 C19.18691893 69.31925318 15.91667995 87.11641945 5.6484375 98.375 C5.16632813 98.808125 4.68421875 99.24125 4.1875 99.6875 C3.08135452 101.04005077 1.97729231 102.39430716 0.875 103.75 C-2.05665808 107.14947586 -4.28848075 108.80476454 -8.8125 109.6875 C-8.8125 110.3475 -8.8125 111.0075 -8.8125 111.6875 C-11.26870851 112.85883058 -13.72724917 114.02471722 -16.1875 115.1875 C-16.88617188 115.52136719 -17.58484375 115.85523438 -18.3046875 116.19921875 C-23.5859375 118.6875 -23.5859375 118.6875 -25.8125 118.6875 C-25.4825 119.6775 -25.1525 120.6675 -24.8125 121.6875 C-25.8025 121.6875 -26.7925 121.6875 -27.8125 121.6875 C-16.92964067 132.1565624 -5.01153445 141.74949161 10.9375 142 C12.3562123 141.92893278 13.77358228 141.82399843 15.1875 141.6875 C16.02925781 141.60886719 16.87101563 141.53023437 17.73828125 141.44921875 C19.89130674 141.2248755 22.04006233 140.9601905 24.1875 140.6875 C24.1875 141.3475 24.1875 142.0075 24.1875 142.6875 C24.8475 143.0175 25.5075 143.3475 26.1875 143.6875 C26.8125 145.75 26.8125 145.75 27.1875 147.6875 C25.12822044 148.67342155 23.06493312 149.65097494 21 150.625 C19.85144531 151.17027344 18.70289063 151.71554688 17.51953125 152.27734375 C3.86324474 158.0568507 -12.31553506 154.90128164 -25.546875 149.58984375 C-35.06554031 145.22958557 -46.40457443 137.10637781 -51.84399414 127.95141602 C-54.11519479 124.18766069 -54.11519479 124.18766069 -57.73413086 121.87915039 C-60.02684819 121.38143201 -62.29768655 121.04532773 -64.625 120.75 C-81.30780566 117.88793491 -94.82624823 110.15362293 -105.15234375 96.62109375 C-117.19035793 78.35110947 -120.01704426 56.21177919 -116.12890625 34.94921875 C-111.76753662 16.28255672 -101.52821028 1.25805671 -85.70703125 -9.62890625 C-80.65702318 -12.56622538 -75.36182726 -14.53266362 -69.8125 -16.3125 C-69.08160156 -16.54710937 -68.35070312 -16.78171875 -67.59765625 -17.0234375 C-43.80847966 -23.73694746 -17.74602736 -16.75680624 0 0 Z M-82.17578125 5.58984375 C-84.03831559 7.97691044 -84.45544639 9.71205329 -84.8125 12.6875 C-85.4725 12.6875 -86.1325 12.6875 -86.8125 12.6875 C-95.63089707 35.58964774 -96.90594903 61.55138049 -87.8125 84.6875 C-82.71288131 95.92144261 -76.15786033 104.38624532 -64.8125 109.6875 C-54.11924153 113.49534326 -39.49122136 113.61119219 -29.06640625 108.9453125 C-18.59164149 103.09977654 -11.39146617 94.31091812 -7.9375 82.76171875 C-1.6649555 58.54607822 -3.03129569 31.79503346 -15.4765625 9.73828125 C-21.45367246 0.60885988 -29.31509558 -4.48631228 -39.57421875 -7.8984375 C-56.53609069 -11.0362358 -69.90439439 -6.16731356 -82.17578125 5.58984375 Z " fill="#235F58" transform="translate(187.8125,59.3125)"/>
<path d="M0 0 C0.34171006 1.37294222 0.67291117 2.74850118 1 4.125 C1.185625 4.89070313 1.37125 5.65640625 1.5625 6.4453125 C2.0573244 9.33473352 2.06784992 12.07397199 2 15 C2.59425781 14.49210937 3.18851563 13.98421875 3.80078125 13.4609375 C16.66757869 2.77529235 27.36433458 -1.49091312 44 0 C47.44560781 0.82038281 50.07729383 2.01871287 53 4 C53.64324219 4.43570313 54.28648437 4.87140625 54.94921875 5.3203125 C61.95315417 10.69440131 65.18180748 18.80269062 66.53100586 27.37304688 C67.22770735 33.24032295 67.23307741 39.12959006 67.31640625 45.03125 C67.33718735 46.26290894 67.35796844 47.49456787 67.37937927 48.7635498 C67.44446188 52.67564626 67.50356693 56.58780656 67.5625 60.5 C67.60523899 63.16147345 67.64934002 65.82292217 67.69335938 68.484375 C67.80010069 74.98951698 67.90194179 81.49472165 68 88 C69.08410156 88.47050781 70.16820312 88.94101563 71.28515625 89.42578125 C71.89496338 89.69044189 72.50477051 89.95510254 73.13305664 90.2277832 C75.71058149 91.29391516 78.34233827 92.15732677 81 93 C81 94.98 81 96.96 81 99 C78.2064727 99.93117577 76.52211075 100.12642037 73.63623047 100.12939453 C72.75877167 100.13254669 71.88131287 100.13569885 70.9772644 100.13894653 C70.03343903 100.1369223 69.08961365 100.13489807 68.1171875 100.1328125 C66.66217331 100.13424759 66.66217331 100.13424759 65.17776489 100.13571167 C63.12843765 100.13639208 61.07910825 100.13454749 59.02978516 100.13037109 C55.8804851 100.12500934 52.73132692 100.13032674 49.58203125 100.13671875 C47.59374968 100.13605817 45.60546821 100.13477743 43.6171875 100.1328125 C42.19537674 100.13584885 42.19537674 100.13584885 40.74484253 100.13894653 C39.43811081 100.13421829 39.43811081 100.13421829 38.10498047 100.12939453 C37.33459442 100.12859894 36.56420837 100.12780334 35.77047729 100.12698364 C34 100 34 100 33 99 C32.95919217 97.00041636 32.95745644 94.99954746 33 93 C34.051875 92.71125 35.10375 92.4225 36.1875 92.125 C40.69861068 90.82381049 40.69861068 90.82381049 45 89 C45.95482078 86.13553767 46.13156534 84.32600993 46.14526367 81.35180664 C46.15164352 80.40974869 46.15802338 79.46769073 46.16459656 78.49708557 C46.16570938 77.4783989 46.1668222 76.45971222 46.16796875 75.41015625 C46.17129715 74.35525497 46.17462555 73.3003537 46.17805481 72.21348572 C46.18312294 69.97492916 46.18546317 67.73636503 46.18530273 65.49780273 C46.18747146 62.10712804 46.20557902 58.71678822 46.22460938 55.32617188 C46.22754704 53.14583444 46.22952934 50.96549546 46.23046875 48.78515625 C46.24124702 47.28445335 46.24124702 47.28445335 46.25224304 45.75343323 C46.22979677 38.67345401 45.40570466 31.93793245 44 25 C43.81288704 23.87036583 43.81288704 23.87036583 43.62199402 22.71791077 C43.41673599 22.15100021 43.21147797 21.58408966 43 21 C41.515 20.505 41.515 20.505 40 20 C40 19.34 40 18.68 40 18 C30.99601856 14.72582493 21.96194271 14.84504499 13.1953125 18.77734375 C10.08458503 20.50983076 7.64213971 22.62207426 5 25 C4.34 25 3.68 25 3 25 C3.08434832 33.03215519 3.17920979 41.06408774 3.28752708 49.09595203 C3.33749118 52.82540473 3.38382103 56.55482908 3.421875 60.28442383 C3.45872665 63.88312369 3.50508593 67.48158651 3.55806351 71.08008385 C3.57660817 72.45356784 3.5917159 73.82710265 3.60334396 75.20066261 C3.62020437 77.12321528 3.65037454 79.04563734 3.68115234 80.96801758 C3.69447601 82.06277908 3.70779968 83.15754059 3.7215271 84.28547668 C3.80905 87.21937563 3.80905 87.21937563 6 90 C8.38384315 90.76161182 8.38384315 90.76161182 11.0625 91.125 C15.9193825 91.9193825 15.9193825 91.9193825 17 93 C17.04080783 94.99958364 17.04254356 97.00045254 17 99 C14.63375005 100.18312497 13.2047343 100.12680202 10.56616211 100.12939453 C9.64858627 100.13254669 8.73101044 100.13569885 7.78562927 100.13894653 C6.79289505 100.1369223 5.80016083 100.13489807 4.77734375 100.1328125 C3.253619 100.13424759 3.253619 100.13424759 1.69911194 100.13571167 C-0.45034853 100.13639289 -2.59981105 100.13454261 -4.74926758 100.13037109 C-8.05229272 100.12501655 -11.35518221 100.13032088 -14.65820312 100.13671875 C-16.7421878 100.13605807 -18.82617239 100.13477711 -20.91015625 100.1328125 C-21.9049147 100.13483673 -22.89967316 100.13686096 -23.92457581 100.13894653 C-24.83899948 100.13579437 -25.75342316 100.13264221 -26.69555664 100.12939453 C-27.50448868 100.12859894 -28.31342072 100.12780334 -29.14686584 100.12698364 C-31 100 -31 100 -32 99 C-32.04080783 97.00041636 -32.04254356 94.99954746 -32 93 C-31.15695312 92.80664062 -30.31390625 92.61328125 -29.4453125 92.4140625 C-27.80175781 92.02347656 -27.80175781 92.02347656 -26.125 91.625 C-25.03445313 91.36976563 -23.94390625 91.11453125 -22.8203125 90.8515625 C-19.89591545 90.21093785 -19.89591545 90.21093785 -18 88 C-17.70599437 84.96300567 -17.70599437 84.96300567 -17.77294922 81.34716797 C-17.77251114 80.32260498 -17.77251114 80.32260498 -17.77206421 79.27734375 C-17.77345961 77.01549659 -17.78903033 74.75397724 -17.8046875 72.4921875 C-17.80841689 70.92563049 -17.81126421 69.35907116 -17.81326294 67.79251099 C-17.82090524 63.66605203 -17.84055876 59.53973349 -17.8626709 55.41333008 C-17.88311654 51.20395813 -17.8922619 46.99456352 -17.90234375 42.78515625 C-17.92380417 34.523373 -17.95794721 26.26170396 -18 18 C-19.13888672 17.90912109 -19.13888672 17.90912109 -20.30078125 17.81640625 C-21.29464844 17.73261719 -22.28851562 17.64882812 -23.3125 17.5625 C-24.29863281 17.48128906 -25.28476562 17.40007812 -26.30078125 17.31640625 C-29 17 -29 17 -32 16 C-32.6875 13.6875 -32.6875 13.6875 -33 11 C-30.77303627 7.99201805 -28.2611511 7.23029505 -24.74609375 6.2109375 C-23.72708984 5.90929687 -22.70808594 5.60765625 -21.65820312 5.296875 C-20.59537109 4.99265625 -19.53253906 4.6884375 -18.4375 4.375 C-16.3316404 3.7591474 -14.22615209 3.14202336 -12.12109375 2.5234375 C-11.1870874 2.25450684 -10.25308105 1.98557617 -9.29077148 1.70849609 C-3.47134775 -0.09135126 -3.47134775 -0.09135126 0 0 Z " fill="#226158" transform="translate(572,79)"/>
<path d="M0 0 C0.0154612 1.5276297 0.0154612 1.5276297 0.03123474 3.08612061 C0.12895569 12.67986027 0.2316886 22.27353489 0.33933926 31.86716843 C0.39452319 36.79944386 0.44793599 41.73172526 0.49731445 46.6640625 C0.54502476 51.42328285 0.59737005 56.18243164 0.65294075 60.94156647 C0.67333408 62.7580309 0.69205213 64.57451494 0.70907402 66.3910141 C0.73318492 68.93359972 0.76323034 71.4760507 0.79467773 74.01855469 C0.8004332 74.77093414 0.80618866 75.5233136 0.81211853 76.29849243 C0.85950298 79.66498214 0.95510634 82.78026001 2 86 C3.39025391 85.98259766 3.39025391 85.98259766 4.80859375 85.96484375 C6.00613281 85.95582031 7.20367187 85.94679688 8.4375 85.9375 C9.63246094 85.92589844 10.82742188 85.91429687 12.05859375 85.90234375 C15 86 15 86 16 87 C16.04092937 89.33297433 16.04241723 91.66705225 16 94 C11.94462159 95.00279556 7.8878146 95.99952558 3.82958984 96.99072266 C2.44995189 97.32858656 1.07071411 97.66808901 -0.30810547 98.00927734 C-2.29290858 98.50011186 -4.27908799 98.98498744 -6.265625 99.46875 C-7.45961914 99.76201172 -8.65361328 100.05527344 -9.88378906 100.35742188 C-13 101 -13 101 -17 101 C-17.99 96.38 -18.98 91.76 -20 87 C-21.670625 88.485 -21.670625 88.485 -23.375 90 C-26.75 93 -26.75 93 -29 93 C-29 93.66 -29 94.32 -29 95 C-37.09699588 100.72714343 -47.66896657 102.83831761 -57.4375 101.4375 C-66.62046538 99.41329795 -72.69905596 95.75724288 -78.125 87.9375 C-83.03844679 78.71040031 -83.45758411 68.36401016 -83.51171875 58.140625 C-83.52966995 56.87023376 -83.54762115 55.59984253 -83.56611633 54.29095459 C-83.61072537 50.95704827 -83.6432272 47.62349594 -83.66955566 44.28942871 C-83.69964305 40.86990524 -83.74607424 37.45060479 -83.79101562 34.03125 C-83.87552383 27.35425104 -83.9425248 20.67728415 -84 14 C-88.29 13.01 -92.58 12.02 -97 11 C-97.04241723 8.66705225 -97.04092937 6.33297433 -97 4 C-94.48060176 1.48060176 -88.4661931 1.87688966 -85.0625 1.4375 C-84.05380859 1.29892578 -83.04511719 1.16035156 -82.00585938 1.01757812 C-81.00490234 0.88673828 -80.00394531 0.75589844 -78.97265625 0.62109375 C-78.06781494 0.5017749 -77.16297363 0.38245605 -76.23071289 0.25952148 C-71.81734687 -0.09500191 -67.42496963 -0.04885942 -63 0 C-62.98786972 1.24788551 -62.98786972 1.24788551 -62.97549438 2.52098083 C-62.89729754 10.39144284 -62.8099327 18.26173961 -62.71247292 26.13198757 C-62.66269528 30.17739422 -62.61636488 34.22277708 -62.578125 38.26831055 C-62.54103645 42.17824602 -62.49461533 46.08797295 -62.44193649 49.99772835 C-62.42351692 51.48348363 -62.40836395 52.9692834 -62.39665604 54.45510674 C-62.76942303 68.15713389 -62.76942303 68.15713389 -57.6875 80.4375 C-52.44571488 85.43548116 -47.26435758 85.43449815 -40.2890625 85.31640625 C-35.58950707 84.86431125 -31.98695068 83.47588218 -28 81 C-27.43227875 80.74594894 -26.8645575 80.49189789 -26.27963257 80.23014832 C-24.03679275 79.02857867 -22.6209123 77.97702157 -21 76 C-19.9844512 71.67290387 -20.16230789 67.42423996 -20.28125 63 C-20.28878296 61.7315625 -20.29631592 60.463125 -20.30407715 59.15625 C-20.33110124 55.78993865 -20.38891426 52.42697237 -20.46105957 49.06152344 C-20.51283414 46.32055496 -20.53487654 43.57973504 -20.55518341 40.83837891 C-20.59756906 35.16267802 -20.66375658 29.48726406 -20.77539062 23.8125 C-20.79428345 22.80832031 -20.81317627 21.80414063 -20.8326416 20.76953125 C-20.96057069 17.60516126 -20.96057069 17.60516126 -22 13 C-26.29 12.01 -30.58 11.02 -35 10 C-35 8.02 -35 6.04 -35 4 C-31.57681032 1.97827494 -28.51965679 1.53496139 -24.58984375 1.11328125 C-23.35298828 0.97986328 -22.11613281 0.84644531 -20.84179688 0.70898438 C-19.55337891 0.57814453 -18.26496094 0.44730469 -16.9375 0.3125 C-14.99907227 0.09883789 -14.99907227 0.09883789 -13.02148438 -0.11914062 C-3.38775112 -1.12925037 -3.38775112 -1.12925037 0 0 Z " fill="#226058" transform="translate(320,80)"/>
<path d="M0 0 C6.07547445 6.98679562 8.58683545 14.52935333 8.67358398 23.6875 C8.68707382 24.8321875 8.70056366 25.976875 8.71446228 27.15625 C8.73011986 28.99703125 8.73011986 28.99703125 8.74609375 30.875 C8.77902011 33.47917018 8.81223195 36.08333676 8.84570312 38.6875 C8.89420223 42.78901975 8.93807991 46.89056408 8.97680664 50.9921875 C9.01476478 54.95327031 9.06802564 58.91409042 9.12109375 62.875 C9.1295079 64.1021875 9.13792206 65.329375 9.14659119 66.59375 C9.16323318 67.7384375 9.17987518 68.883125 9.19702148 70.0625 C9.21248268 71.56876953 9.21248268 71.56876953 9.22825623 73.10546875 C9.51950987 76.07383871 10.11770766 78.23402735 11.5 80.875 C16.26707449 82.53793296 19.82656632 81.46396745 24.5 79.875 C27.5 84.5 27.5 84.5 27.5 87.875 C21.80196327 92.92277722 15.69269845 95.86076467 8.07421875 96.078125 C2.42634946 95.63246612 -1.20816298 93.97844412 -5.5 90.3125 C-7.5 87.875 -7.5 87.875 -7.5 85.875 C-8.49 85.38 -8.49 85.38 -9.5 84.875 C-9.83 84.545 -10.16 84.215 -10.5 83.875 C-11.28375 84.37 -12.0675 84.865 -12.875 85.375 C-15.5 86.875 -15.5 86.875 -17.5 86.875 C-17.5 87.535 -17.5 88.195 -17.5 88.875 C-19.55927956 89.86092155 -21.62256688 90.83847494 -23.6875 91.8125 C-24.83605469 92.35777344 -25.98460937 92.90304688 -27.16796875 93.46484375 C-35.55815475 97.01567276 -44.84657199 97.08939329 -53.4375 94.125 C-61.03304173 90.98201721 -64.36996448 87.34719265 -67.5 79.875 C-69.89270573 72.69688282 -69.05801834 65.04449679 -65.93359375 58.22265625 C-57.04150549 43.66095313 -38.16303503 40.80794005 -22.92260742 37.05834961 C-13.82912615 34.875 -13.82912615 34.875 -11.5 34.875 C-11.58782642 32.04032658 -11.69480902 29.20846584 -11.8125 26.375 C-11.84633789 25.18777344 -11.84633789 25.18777344 -11.88085938 23.9765625 C-12.13381335 18.36558337 -13.1521063 13.99767717 -15.5 8.875 C-20.93844831 4.04082373 -26.32387135 4.49265403 -33.390625 4.63671875 C-36.53242864 4.7509122 -36.53242864 4.7509122 -39.5 5.875 C-39.83 6.535 -40.16 7.195 -40.5 7.875 C-41.16 7.875 -41.82 7.875 -42.5 7.875 C-42.69335938 8.67164062 -42.88671875 9.46828125 -43.0859375 10.2890625 C-43.62139627 12.46800859 -44.17003112 14.64375077 -44.73046875 16.81640625 C-45.28185225 19.00794575 -45.75929168 21.21860235 -46.1875 23.4375 C-47.9661147 26.74064159 -49.89360123 27.39968298 -53.40625 28.46875 C-57.61201837 29.28479461 -60.33295472 28.64279295 -63.875 26.3125 C-65.74381363 23.50927956 -66.13272121 21.38430034 -65.9453125 18.0234375 C-64.50303535 11.06508284 -59.21701019 5.72799412 -53.5 1.875 C-38.00294481 -7.15954543 -15.80802367 -11.27425038 0 0 Z M-24.1875 46.5625 C-25.06083984 46.80677734 -25.93417969 47.05105469 -26.83398438 47.30273438 C-34.7631618 49.64181211 -41.8208582 52.76270446 -46.5 59.875 C-48.37664991 65.50494973 -48.43749151 70.96529508 -45.8125 76.3125 C-42.81460867 79.63448769 -40.79869726 81.58915164 -36.23828125 82.15625 C-30.32351819 82.37363792 -25.78750014 81.4265052 -20.5 78.875 C-19.72994629 78.55402344 -18.95989258 78.23304688 -18.16650391 77.90234375 C-15.38256743 76.47978595 -13.55454665 75.25051197 -11.5 72.875 C-10.37284967 67.90554971 -10.64805576 63.05101444 -10.9375 58 C-10.98269101 56.63033973 -11.02374768 55.26053642 -11.06054688 53.890625 C-11.16646143 50.54843228 -11.31424272 47.21355042 -11.5 43.875 C-15.96390347 43.875 -19.92785109 45.30459646 -24.1875 46.5625 Z " fill="#216059" transform="translate(502.5,85.125)"/>
<path d="M0 0 C0.66 5.28 1.32 10.56 2 16 C3.299375 14.288125 4.59875 12.57625 5.9375 10.8125 C10.85967127 4.77059309 15.66468347 1.44510551 23 -1 C29.23825899 -1.50924563 34.69347708 -1.71456604 40 2 C43.34180933 4.99610492 43.71253989 8.50709161 44.07421875 12.8046875 C43.96975644 15.89457263 43.01107907 17.69098329 41 20 C40.34 20 39.68 20 39 20 C39 20.66 39 21.32 39 22 C33.3361389 22.53209551 29.23009596 22.50675817 24.3125 19.4375 C21.32503469 17.61881498 20.02405033 17.00253161 16.4375 16.625 C10.26666412 19.09333435 6.60802352 24.58796472 3 30 C2.70931873 32.64844769 2.70931873 32.64844769 2.77294922 35.66479492 C2.77317581 37.40626045 2.77317581 37.40626045 2.77340698 39.1829071 C2.78372955 40.43610245 2.79405212 41.68929779 2.8046875 42.98046875 C2.80893234 44.90515739 2.80893234 44.90515739 2.81326294 46.86872864 C2.82089203 50.27676202 2.84053413 53.68462441 2.8626709 57.09259033 C2.88314503 60.57146898 2.892268 64.05037532 2.90234375 67.52929688 C2.92378082 74.35293474 2.95790795 81.17645916 3 88 C4.13179688 88.20496094 5.26359375 88.40992188 6.4296875 88.62109375 C7.91148761 88.89306972 9.39325685 89.16521387 10.875 89.4375 C11.99455078 89.63956055 11.99455078 89.63956055 13.13671875 89.84570312 C18.7734375 90.88671875 18.7734375 90.88671875 21 92 C21 94.31 21 96.62 21 99 C3.18 99 -14.64 99 -33 99 C-33 96.69 -33 94.38 -33 92 C-32.07316406 91.72285156 -31.14632813 91.44570312 -30.19140625 91.16015625 C-28.39509766 90.61681641 -28.39509766 90.61681641 -26.5625 90.0625 C-24.77005859 89.52302734 -24.77005859 89.52302734 -22.94140625 88.97265625 C-20.14132455 88.29110858 -20.14132455 88.29110858 -19 87 C-18.90570658 84.82194281 -18.88257462 82.6407872 -18.88647461 80.46069336 C-18.88632858 79.77779739 -18.88618256 79.09490143 -18.8860321 78.39131165 C-18.88673124 76.12412386 -18.8945236 73.85701726 -18.90234375 71.58984375 C-18.90420793 70.02185613 -18.90563183 68.45386793 -18.90663147 66.88587952 C-18.91045666 62.75123497 -18.92028694 58.61662534 -18.93133545 54.48199463 C-18.94154956 50.26599602 -18.94612909 46.04999178 -18.95117188 41.83398438 C-18.96190921 33.55597353 -18.97898564 25.2779911 -19 17 C-19.91523438 16.95101562 -20.83046875 16.90203125 -21.7734375 16.8515625 C-23.55621094 16.73941406 -23.55621094 16.73941406 -25.375 16.625 C-26.55835938 16.55539063 -27.74171875 16.48578125 -28.9609375 16.4140625 C-32 16 -32 16 -34 14 C-34.125 11.375 -34.125 11.375 -34 9 C-28.41974037 5.89879225 -22.52527717 4.11196331 -16.4375 2.25 C-14.89545898 1.75693359 -14.89545898 1.75693359 -13.32226562 1.25390625 C-12.32775391 0.94839844 -11.33324219 0.64289063 -10.30859375 0.328125 C-8.95979126 -0.09098145 -8.95979126 -0.09098145 -7.58374023 -0.51855469 C-5 -1 -5 -1 0 0 Z " fill="#225F57" transform="translate(381,80)"/>
<path d="M0 0 C0.66 0.33 1.32 0.66 2 1 C2 18.49 2 35.98 2 54 C1.67 54 1.34 54 1 54 C0.85699851 47.23731695 0.71464912 40.47462041 0.57275391 33.71191406 C0.52440174 31.41112965 0.47590007 29.11034837 0.42724609 26.80957031 C0.35735436 23.50326334 0.28799955 20.19694548 0.21875 16.890625 C0.19687622 15.86132874 0.17500244 14.83203247 0.15246582 13.77154541 C0.13244507 12.81085144 0.11242432 11.85015747 0.09179688 10.86035156 C0.07403198 10.01651917 0.05626709 9.17268677 0.03796387 8.30328369 C-0.0076575 5.5354165 0 2.76817171 0 0 Z " fill="#305854" transform="translate(573,106)"/>
<path d="M0 0 C-0.63671875 1.86328125 -0.63671875 1.86328125 -2 4 C-4.64453125 5.23046875 -4.64453125 5.23046875 -7.8125 6.1875 C-9.36904297 6.67283203 -9.36904297 6.67283203 -10.95703125 7.16796875 C-13.62941717 7.89867247 -16.27602598 8.50152786 -19 9 C-18 6 -18 6 -15.41796875 4.6484375 C-14.35191406 4.22820312 -13.28585937 3.80796875 -12.1875 3.375 C-11.12917969 2.94960937 -10.07085937 2.52421875 -8.98046875 2.0859375 C-5.93634497 0.97680721 -3.24726736 0 0 0 Z " fill="#1E5952" transform="translate(467,126)"/>
<path d="M0 0 C0.66 0 1.32 0 2 0 C3.70043609 3.60092348 4.03604388 5.22831227 3 9 C2.89174894 10.34210855 2.82527136 11.68806019 2.79467773 13.03417969 C2.77473251 13.81468689 2.75478729 14.59519409 2.73423767 15.39935303 C2.71752518 16.23178528 2.70081268 17.06421753 2.68359375 17.921875 C2.66281265 18.78186096 2.64203156 19.64184692 2.62062073 20.52789307 C2.55536261 23.26851598 2.49635083 26.00923275 2.4375 28.75 C2.39429219 30.6106867 2.35067718 32.47136398 2.30664062 34.33203125 C2.19970558 38.88792523 2.09837149 43.4439134 2 48 C1.67 48 1.34 48 1 48 C0.67 32.16 0.34 16.32 0 0 Z " fill="#286960" transform="translate(635,108)"/>
<path d="M0 0 C19.51224105 -0.66101695 19.51224105 -0.66101695 27 3 C27.33 3.99 27.66 4.98 28 6 C26.35 6.33 24.7 6.66 23 7 C22.76877441 6.35708008 22.53754883 5.71416016 22.29931641 5.05175781 C21.18774388 2.79844493 21.18774388 2.79844493 18.84521484 2.36230469 C17.97590332 2.29946289 17.1065918 2.23662109 16.2109375 2.171875 C15.26992188 2.09453125 14.32890625 2.0171875 13.359375 1.9375 C12.37453125 1.875625 11.3896875 1.81375 10.375 1.75 C9.38242187 1.67265625 8.38984375 1.5953125 7.3671875 1.515625 C4.91220801 1.32678042 2.45726954 1.15567559 0 1 C0 0.67 0 0.34 0 0 Z " fill="#275951" transform="translate(470,79)"/>
<path d="M0 0 C0.99 0 1.98 0 3 0 C3 0.66 3 1.32 3 2 C3.99 2.33 4.98 2.66 6 3 C5.01 4.485 5.01 4.485 4 6 C3.34 6 2.68 6 2 6 C2 6.66 2 7.32 2 8 C-0.31 8 -2.62 8 -5 8 C-4.505 7.566875 -4.01 7.13375 -3.5 6.6875 C-1.66781808 5.00259517 -1.66781808 5.00259517 -2 2 C-1.34 1.67 -0.68 1.34 0 1 C0 0.67 0 0.34 0 0 Z " fill="#25635E" transform="translate(483,166)"/>
<path d="M0 0 C0 0.66 0 1.32 0 2 C-0.66 2 -1.32 2 -2 2 C-2 2.66 -2 3.32 -2 4 C-3.65 3.67 -5.3 3.34 -7 3 C-6.67 3.99 -6.34 4.98 -6 6 C-7.98 6.99 -9.96 7.98 -12 9 C-12 7.02 -12 5.04 -12 3 C-10.906875 2.690625 -9.81375 2.38125 -8.6875 2.0625 C-1.52941176 0 -1.52941176 0 0 0 Z " fill="#1F5952" transform="translate(617,169)"/>
<path d="M0 0 C0 0.99 0 1.98 0 3 C-0.66 3 -1.32 3 -2 3 C-2 3.99 -2 4.98 -2 6 C-4.31 6 -6.62 6 -9 6 C-9 4.35 -9 2.7 -9 1 C-5.94152152 0.45627049 -3.11227195 0 0 0 Z " fill="#1B5D54" transform="translate(359,170)"/>
<path d="M0 0 C1.423125 0.6496875 1.423125 0.6496875 2.875 1.3125 C7.45697862 3.28830187 12.20611723 4.63996485 17 6 C17 6.33 17 6.66 17 7 C9.48130488 7.59672183 5.25968955 6.14352972 -1 2 C-0.67 1.34 -0.34 0.68 0 0 Z " fill="#32635A" transform="translate(402,95)"/>
<path d="M0 0 C-1.65 0.33 -3.3 0.66 -5 1 C-5.33 2.32 -5.66 3.64 -6 5 C-7.65 5.33 -9.3 5.66 -11 6 C-11.33 5.34 -11.66 4.68 -12 4 C-12.66 3.67 -13.32 3.34 -14 3 C-12.42274653 2.29866401 -10.83788667 1.614417 -9.25 0.9375 C-7.92742187 0.36322266 -7.92742187 0.36322266 -6.578125 -0.22265625 C-3.84743691 -1.04600008 -2.63098653 -0.9773992 0 0 Z " fill="#25564E" transform="translate(380,80)"/>
<path d="M0 0 C0.99 0.33 1.98 0.66 3 1 C3.33 1.99 3.66 2.98 4 4 C3.01 4.33 2.02 4.66 1 5 C1 6.32 1 7.64 1 9 C0.34 9 -0.32 9 -1 9 C-1.33 9.66 -1.66 10.32 -2 11 C-2.99 10.01 -3.98 9.02 -5 8 C-4.54625 7.608125 -4.0925 7.21625 -3.625 6.8125 C-1.72357081 4.69167513 -0.93795972 2.66957765 0 0 Z " fill="#1C655E" transform="translate(292,164)"/>
<path d="M0 0 C-1.4562545 0.67119549 -2.91507867 1.33681807 -4.375 2 C-5.59316406 2.556875 -5.59316406 2.556875 -6.8359375 3.125 C-9 4 -9 4 -11 4 C-10.34 5.98 -9.68 7.96 -9 10 C-10.32 9.34 -11.64 8.68 -13 8 C-13 6.35 -13 4.7 -13 3 C-4.43362832 -1.47787611 -4.43362832 -1.47787611 0 0 Z " fill="#2C5954" transform="translate(360,86)"/>
<path d="M0 0 C3.6969041 0.24646027 5.54337041 0.60345325 8.375 3.0625 C8.91125 3.701875 9.4475 4.34125 10 5 C9.01 5.33 8.02 5.66 7 6 C7 5.34 7 4.68 7 4 C3.94736336 3.01879536 2.05263664 3.01879536 -1 4 C-1 1 -1 1 0 0 Z " fill="#22574F" transform="translate(109,162)"/>
<path d="M0 0 C0 3.97378549 -1.34753657 5.12649795 -4 8 C-6.25 9.3125 -6.25 9.3125 -8 10 C-7.44449305 6.40094092 -6.25112752 5.00090201 -3.4375 2.75 C-2.79683594 2.22921875 -2.15617187 1.7084375 -1.49609375 1.171875 C-1.00238281 0.78515625 -0.50867188 0.3984375 0 0 Z " fill="#1B564D" transform="translate(446,134)"/>
<path d="M0 0 C2.0343459 1.41519715 2.90410393 2.54982123 3.421875 4.98046875 C3.66273952 6.98176954 3.83532741 8.9909944 4 11 C3.67 10.01 3.34 9.02 3 8 C0.98491642 7.26676204 0.98491642 7.26676204 -1 7 C-0.67 6.34 -0.34 5.68 0 5 C-0.33 4.67 -0.66 4.34 -1 4 C-1.33 3.34 -1.66 2.68 -2 2 C-1.34 2 -0.68 2 0 2 C0 1.34 0 0.68 0 0 Z " fill="#285A51" transform="translate(506,92)"/>
<path d="M0 0 C4.41889613 1.35021826 6.34345343 3.26115668 9 7 C6.36 6.34 3.72 5.68 1 5 C0.67 3.35 0.34 1.7 0 0 Z " fill="#285950" transform="translate(622,82)"/>
<path d="M0 0 C0.33 0 0.66 0 1 0 C1.05382106 2.62527189 1.09358313 5.24944713 1.125 7.875 C1.14175781 8.62136719 1.15851563 9.36773437 1.17578125 10.13671875 C1.1933959 12.09194461 1.10320189 14.04742021 1 16 C0.34 16.66 -0.32 17.32 -1 18 C-1.99 17.67 -2.98 17.34 -4 17 C-3.51917969 16.65324219 -3.03835938 16.30648437 -2.54296875 15.94921875 C-0.24641888 13.04800765 -0.47973801 10.45828853 -0.3125 6.8125 C-0.21388672 4.90404297 -0.21388672 4.90404297 -0.11328125 2.95703125 C-0.07589844 1.98121094 -0.03851563 1.00539062 0 0 Z " fill="#2C5C55" transform="translate(300,142)"/>
<path d="M0 0 C0.33 0 0.66 0 1 0 C1 5.94 1 11.88 1 18 C0.67 18 0.34 18 0 18 C-2.0263374 11.40660984 -2.0263374 6.59339016 0 0 Z " fill="#26655D" transform="translate(72,102)"/>
<path d="M0 0 C-0.33 1.65 -0.66 3.3 -1 5 C-2.65 5.33 -4.3 5.66 -6 6 C-6.66666667 4.66666667 -7.33333333 3.33333333 -8 2 C-2.25 0 -2.25 0 0 0 Z " fill="#1F5A4D" transform="translate(567,80)"/>
<path d="M0 0 C1.70884005 1.62339805 3.37446717 3.29319053 5 5 C5 5.66 5 6.32 5 7 C0.25 6.25 0.25 6.25 -2 4 C-1.34 2.68 -0.68 1.36 0 0 Z " fill="#1A5951" transform="translate(384,94)"/>
<path d="M0 0 C0.99 0.33 1.98 0.66 3 1 C3.33 3.97 3.66 6.94 4 10 C3.34 10 2.68 10 2 10 C1.34 6.7 0.68 3.4 0 0 Z " fill="#21524A" transform="translate(421,85)"/>
<path d="M0 0 C0.99 0.33 1.98 0.66 3 1 C3.33 2.65 3.66 4.3 4 6 C1.69 5.34 -0.62 4.68 -3 4 C-2.67 3.01 -2.34 2.02 -2 1 C-1.34 0.67 -0.68 0.34 0 0 Z " fill="#246460" transform="translate(398,173)"/>
<path d="M0 0 C0.8353125 0.37125 0.8353125 0.37125 1.6875 0.75 C0.6975 1.245 0.6975 1.245 -0.3125 1.75 C-0.3125 2.41 -0.3125 3.07 -0.3125 3.75 C-2.6225 3.75 -4.9325 3.75 -7.3125 3.75 C-2.88173077 -0.31153846 -2.88173077 -0.31153846 0 0 Z " fill="#1F6D63" transform="translate(485.3125,170.25)"/>
<path d="M0 0 C3.37503669 1.1858237 5.64722731 2.27573689 8 5 C5.69 5 3.38 5 1 5 C0.67 3.35 0.34 1.7 0 0 Z " fill="#295B51" transform="translate(171,192)"/>
<path d="M0 0 C-2.93828597 2.50298434 -5.17902761 3.46930939 -9 4 C-8.67 3.01 -8.34 2.02 -8 1 C-5.29120665 -0.35439668 -2.99066732 -0.06501451 0 0 Z " fill="#2F6057" transform="translate(483,174)"/>
<path d="M0 0 C2.475 0.495 2.475 0.495 5 1 C5 2.98 5 4.96 5 7 C4.01 7.33 3.02 7.66 2 8 C1.67 7.34 1.34 6.68 1 6 C1.66 6 2.32 6 3 6 C2.42655063 3.13275314 2.1385485 2.1385485 0 0 Z " fill="#26564E" transform="translate(584,171)"/>
<path d="M0 0 C1.32 0.99 2.64 1.98 4 3 C3.34 4.65 2.68 6.3 2 8 C1.67 7.34 1.34 6.68 1 6 C0.01 5.67 -0.98 5.34 -2 5 C-1.34 3.35 -0.68 1.7 0 0 Z " fill="#1E564C" transform="translate(75,84)"/>
<path d="M0 0 C0.391875 0.639375 0.78375 1.27875 1.1875 1.9375 C3.38472296 4.43778819 4.75791433 4.64950425 8 5 C5 7 5 7 1 7 C0.67 4.69 0.34 2.38 0 0 Z " fill="#2B5C52" transform="translate(302,174)"/>
<path d="M0 0 C0.99 0.33 1.98 0.66 3 1 C1.1875 3.5 1.1875 3.5 -1 6 C-1.99 6 -2.98 6 -4 6 C-3.67 4.68 -3.34 3.36 -3 2 C-2.01 2 -1.02 2 0 2 C0 1.34 0 0.68 0 0 Z " fill="#255E55" transform="translate(296,166)"/>
<path d="M0 0 C1.2065625 0.0309375 1.2065625 0.0309375 2.4375 0.0625 C2.1075 1.3825 1.7775 2.7025 1.4375 4.0625 C0.4475 4.0625 -0.5425 4.0625 -1.5625 4.0625 C-1.5625 3.4025 -1.5625 2.7425 -1.5625 2.0625 C-2.2225 1.7325 -2.8825 1.4025 -3.5625 1.0625 C-2.5625 0.0625 -2.5625 0.0625 0 0 Z " fill="#1B534D" transform="translate(184.5625,161.9375)"/>
<path d="M0 0 C0.33 0.66 0.66 1.32 1 2 C-2.07999946 5.67230705 -4.2482602 6.56802365 -9 7 C-6.24479785 4.04070881 -3.53372712 1.96318174 0 0 Z " fill="#215046" transform="translate(107,47)"/>
<path d="M0 0 C1.65 0.99 3.3 1.98 5 3 C4.67 3.66 4.34 4.32 4 5 C1.03 4.505 1.03 4.505 -2 4 C-1.34 2.68 -0.68 1.36 0 0 Z " fill="#265950" transform="translate(172,48)"/>
<path d="M0 0 C2.475 0.495 2.475 0.495 5 1 C5 1.99 5 2.98 5 4 C3.68 4.33 2.36 4.66 1 5 C0.67 3.35 0.34 1.7 0 0 Z " fill="#285751" transform="translate(210,203)"/>
<path d="M0 0 C0.33 1.32 0.66 2.64 1 4 C0.401875 3.835 -0.19625 3.67 -0.8125 3.5 C-3.11344336 2.8885876 -3.11344336 2.8885876 -6 3 C-6.33 2.34 -6.66 1.68 -7 1 C-2.25 0 -2.25 0 0 0 Z " fill="#225850" transform="translate(512,161)"/>
<path d="M0 0 C0.99 0.99 1.98 1.98 3 3 C2.34 4.32 1.68 5.64 1 7 C0.34 6.34 -0.32 5.68 -1 5 C-0.625 2.375 -0.625 2.375 0 0 Z " fill="#215149" transform="translate(632,91)"/>
<path d="" fill="#000000" transform="translate(0,0)"/>
</svg>
